<svg width="144" height="22" viewBox="0 0 144 22" fill="none" xmlns="http://www.w3.org/2000/svg">
<path fill-rule="evenodd" clip-rule="evenodd" d="M94.9837 18.7207C94.5294 18.7207 93.7831 18.2723 93.7831 17.4536C93.7831 17.4536 94.2049 6.65392 94.2049 3.98325C94.2049 3.28797 94.0297 3.37895 93.6922 3.37895C93.3547 3.37895 91.5375 3.98325 90.8171 3.98325C90.3304 3.98325 90.2914 3.65836 90.2914 3.45692C90.2914 2.82662 92.7901 2.04686 94.0297 1.76745C94.5619 1.65048 93.9518 0 95.3342 0C96.4829 0 96.2168 1.07217 96.5802 1.07217C97.1903 1.07217 99.0594 0.734271 101.96 0.974696C104.05 1.15014 111.663 3.171 111.663 11.3649C111.663 14.6789 109.08 21.7097 98.0664 21.7097C95.094 21.7097 90.551 20.2932 90.882 19.299C90.9794 19.0131 91.2974 18.6427 91.8166 18.8896C93.4845 19.7019 96.418 19.9748 98.5337 19.9748C101.188 19.9748 108.749 18.3568 108.749 10.4162C108.749 4.95795 102.447 2.33927 97.0021 3.02805C96.9826 3.04755 96.5543 3.09303 96.5543 3.59987C96.5543 3.8273 96.4829 13.3598 96.4829 15.907C96.4829 16.0305 96.5218 18.7207 94.9837 18.7207ZM137.597 8.99969C137.597 8.36289 138.116 7.84305 138.752 7.84305C139.388 7.84305 139.907 8.36289 139.907 8.99969C139.907 9.63649 139.388 10.1563 138.752 10.1563C138.116 10.1498 137.597 9.63649 137.597 8.99969ZM52.7339 8.6423C52.7339 8.05099 53.2077 7.57664 53.7983 7.57664C54.3889 7.57664 54.8626 8.05099 54.8626 8.6423C54.8626 9.23362 54.3889 9.70797 53.7983 9.70797C53.2142 9.70797 52.7339 9.22712 52.7339 8.6423ZM0.0937067 17.1806L3.60479 2.74214C3.60479 2.74214 3.81896 1.63099 4.21484 1.36457C4.80543 0.9617 5.49337 0.987689 5.49337 0.987689C5.49337 0.987689 6.60316 1.05917 7.05746 1.39706C7.45983 1.69597 7.71294 2.70965 7.71294 2.70965L9.46524 13.4378C9.46524 13.4378 9.64047 14.9258 10.1597 14.9258C10.6789 14.9258 11.0034 13.7822 11.0034 13.7822L15.3971 2.08585C15.3971 2.08585 15.7086 1.17613 16.111 0.747267C16.4744 0.357389 17.0975 0.350884 17.0975 0.350884H18.4474C18.4474 0.350884 19.038 0.402868 19.4209 0.838232C19.8362 1.30609 19.7908 2.39775 19.7908 2.39775L20.6799 19.5394C20.6799 19.5394 20.8616 21.5408 19.4209 21.5733C17.9087 21.5993 17.9022 20.2737 17.9022 20.2737L17.5907 5.41281C17.5907 5.41281 17.4349 4.70453 17.0196 4.70453C16.8379 4.70453 16.5523 5.45179 16.5523 5.45179L12.0872 16.7518C12.0872 16.7518 11.3538 18.9676 9.56259 18.9156C7.90115 18.8636 7.49877 16.7518 7.49877 16.7518L5.76595 7.60263C5.76595 7.60263 5.55178 6.7384 5.20132 6.7384C4.88331 6.7384 4.68212 7.60263 4.68212 7.60263L2.48202 17.1806C2.48202 17.1806 2.52096 18.7986 1.06071 18.7596C-0.444961 18.7207 0.0937067 17.1806 0.0937067 17.1806Z" fill="black"/>
<path fill-rule="evenodd" clip-rule="evenodd" d="M129.011 16.9337C128.602 16.9337 127.817 16.7842 127.817 15.7835C127.817 14.7828 127.83 11.6378 127.83 10.8256C127.83 10.0133 128.089 10.0393 128.407 10.0393H130.782C131.373 10.0393 131.444 10.0263 131.444 10.7411C131.444 11.4559 131.237 14.6009 130.919 15.2767C130.49 16.1864 130.056 16.9337 129.011 16.9337ZM112.539 16.3229C112.539 15.5626 113.474 15.4651 113.999 14.8608C114.765 13.9836 114.499 12.4176 115.719 12.4176C117.121 12.4176 116.271 15.1922 116.479 16.6543C116.537 17.1026 116.79 17.473 117.296 17.473C118.38 17.473 119.172 16.4528 119.639 15.2897C120.055 14.263 120.184 13.1324 120.489 12.5021C120.639 12.1902 120.931 12.1512 121.099 12.1382C122.002 12.0472 122.06 13.1973 122.066 14.341C122.073 15.1142 122.125 15.894 122.125 16.2839C122.125 16.3424 122.436 17.2521 123.215 17.2521C123.819 17.2521 126.317 16.9207 126.006 10.4617C125.98 9.92237 125.954 9.98085 125.655 9.94186C125.415 9.90937 124.247 9.96785 123.364 9.83139C123.124 9.7924 122.54 9.40902 122.514 8.96066C122.495 8.60977 122.936 8.2069 123.196 8.10943C123.676 7.94048 125.448 8.03795 125.636 8.03795C125.746 8.03795 126.038 8.08994 126.116 7.92749C126.285 7.12824 126.428 4.89294 126.428 4.10019C126.428 3.85976 126.629 3.33992 127.31 3.33992C128.219 3.33992 128.238 3.93774 128.238 4.26913V7.65457C128.238 7.91449 128.277 8.04445 128.388 8.04445H131.367C131.6 8.04445 131.801 7.80403 131.801 7.65457C131.801 7.42714 131.951 5.58172 131.951 5.08788C131.951 4.59403 132.029 3.31393 132.905 3.31393C133.774 3.31393 133.677 4.10019 133.677 4.3861V7.99897H135.235C136.299 7.99897 136.734 8.78522 136.734 9.1556C136.734 9.92236 136.169 10.0458 135.955 10.0458H133.826C133.58 10.0458 133.495 10.8646 133.495 11.1245C133.495 11.3844 133.262 14.8478 133.262 15.2897C133.262 16.3554 133.755 17.1611 134.696 17.1611C135.631 17.1611 136.747 15.803 136.903 15.1857C137.071 14.5229 137.272 13.5677 137.539 12.9179C137.805 12.2681 138.084 12.2162 138.48 12.2162C138.875 12.2162 139.369 12.3461 139.245 13.6587C139.116 15.0947 139.103 15.1597 139.103 15.842C139.103 16.5308 139.778 18.0383 140.998 18.0383C141.355 18.0383 142.146 18.1163 143.165 17.7719C144.106 17.4535 143.996 17.603 143.996 18.0513C143.996 18.4477 142.821 18.935 141.867 19.2145C140.926 19.4874 139.875 19.4354 139.369 19.1625C138.389 18.6361 138.11 18.3047 137.908 18.1033C137.714 17.9084 137.565 17.9214 137.461 17.9214C136.403 17.9214 136.39 19.2989 134.657 19.2989C132.924 19.2989 132.898 17.9474 131.691 17.9474C130.698 17.9474 130.367 19.3899 129.121 19.3899C127.706 19.3899 127.602 18.0123 126.214 18.0123C124.825 18.0123 124.954 19.3899 123.118 19.3899C121.742 19.3899 121.242 17.7914 120.269 17.7914C119.081 17.7914 119.12 19.6693 116.991 19.6693C114.304 19.6693 114.94 16.6932 114.058 16.6932C113.565 16.6932 113.896 16.9467 113.104 16.9467C112.578 16.9337 112.539 16.5893 112.539 16.3229ZM29.9866 13.3078C29.9866 13.3078 30.3955 13.4638 30.4149 13.8601C30.4279 14.1655 30.4149 15.7965 30.4149 15.7965C30.4149 15.7965 30.4149 16.4138 29.0066 16.9857C27.5983 17.5575 27.2024 17.3365 26.6248 17.2066C26.0537 17.0831 25.4501 16.2059 25.4501 15.7316C25.4501 15.2572 25.6513 14.5229 26.177 14.0356C26.7027 13.5417 27.131 13.4313 27.5399 13.3403C27.9487 13.2428 28.9677 13.2623 29.2208 13.2623C29.4804 13.2623 29.9866 13.3078 29.9866 13.3078ZM47.886 16.2644C47.886 16.2644 46.5945 16.5113 46.7113 17.2326C46.7113 17.2326 46.5685 17.616 47.3343 17.6744C47.3343 17.6744 48.1585 17.8434 48.2819 17.3885C48.2819 17.3885 48.4571 17.3106 48.0872 16.5438L47.886 16.2644ZM40.4939 16.4203C40.4939 16.4203 39.2024 16.6673 39.3192 17.3885C39.3192 17.3885 39.1699 17.7719 39.9422 17.8304C39.9422 17.8304 40.7665 17.9928 40.8898 17.5445C40.8898 17.5445 41.065 17.4665 40.6951 16.6997L40.4939 16.4203ZM60.5869 18.9156C59.0812 18.9156 60.0482 16.2059 58.6788 16.2059C57.3094 16.2059 57.0823 18.5777 54.9081 18.5777C52.8183 18.5777 53.2856 14.6724 52.3316 14.7504C51.1115 14.8543 50.2613 15.1272 50.2613 15.6016C50.2613 16.0759 50.5533 16.024 50.5533 16.9857C50.5533 17.9474 50.0536 19.143 47.1396 19.143C45.0174 19.143 44.2321 17.9993 44.2321 17.395C44.2321 15.764 46.7502 15.5821 46.7502 15.1207C46.7502 14.8608 45.9584 13.7302 45.5236 13.6847C44.972 13.6327 42.4733 15.4651 42.4733 15.8225C42.4733 16.1799 43.1093 16.6868 43.1093 17.8824C43.1093 19.3769 41.701 19.5004 40.3835 19.5004C39.0661 19.5004 37.0866 18.7271 37.0866 17.8759C37.0866 17.6355 37.0607 17.2586 37.3073 16.9272C37.8525 16.1864 38.5988 15.8485 39.118 15.5756C39.3906 15.4326 39.3711 15.5366 39.3711 15.3677C39.3711 15.1987 38.6637 14.5814 38.4755 14.5814C38.3781 14.5814 38.1834 14.419 37.8784 14.7244C36.7946 15.8095 36.5999 18.7206 33.7118 18.7206C31.7908 18.7206 31.7129 17.4535 30.7978 17.4535C30.0126 17.4535 28.7405 18.7336 26.0537 18.7336C23.3473 18.7336 22.8606 16.2709 22.8606 15.3547C22.8606 14.6464 23.0877 11.9497 27.7995 11.9497C29.9606 11.9497 30.35 12.6905 30.7459 12.6905C30.8887 12.6905 31.1288 12.723 31.2197 12.6385C31.3625 12.4956 31.3949 12.4306 31.6026 12.4306C31.8103 12.4306 32.3944 12.3786 32.4658 12.4436C32.5307 12.5086 32.8487 12.606 32.8487 12.9569C32.8487 13.3078 32.4268 14.3475 32.4268 14.6529C32.4268 14.8153 32.3684 15.2442 32.3619 15.6146C32.3554 15.933 32.3944 16.2124 32.3944 16.2254C32.3944 16.4528 32.4723 17.0961 33.6534 17.0961C35.0358 17.0961 36.3078 15.3092 36.5415 13.8211C36.6907 12.8984 36.5934 11.5209 36.5934 11.3324C36.5934 11.144 36.5155 10.949 36.7816 10.8191C36.827 10.7996 37.1191 10.6436 37.2424 10.6436C37.3527 10.6436 37.489 10.7151 37.6318 10.8581C37.7097 10.936 38.456 11.9302 39.423 12.8335C40.2213 13.5872 40.9741 13.9446 41.6296 14.406C41.7464 14.4904 44.2905 12.541 44.2905 12.3396V11.196C44.2905 10.7151 44.7838 10.3382 45.1018 10.3382C45.9844 10.3382 48.1131 14.185 49.1255 14.185C49.7551 14.185 51.8449 13.3013 52.1564 13.1713C52.416 13.0609 53.2791 11.9562 53.2791 11.8588C53.2791 11.7613 54.7653 11.9757 54.7653 12.7165C54.7653 13.4573 54.7199 16.2319 55.3429 16.2319C57.9779 16.2319 57.6144 11.7548 59.4771 11.7548C61.0347 11.7548 60.1326 14.7569 61.3008 14.7569C62.469 14.7569 62.5403 11.5274 64.6171 11.5274C65.4349 11.5274 65.4349 14.0291 66.4149 14.0291C67.8751 14.0291 68.0244 11.6053 69.5495 11.6053C72.165 11.6053 69.7572 17.356 72.0027 17.356C74.5079 17.356 74.2288 12.4436 75.4814 12.4436C77.2921 12.4436 74.073 17.447 78.6485 17.447C81.3872 17.447 82.9319 14.0096 80.0114 13.1259C78.7653 12.749 77.8567 13.6912 77.2921 13.1194C77.1363 12.9634 77.6555 12.3201 77.98 12.1902C78.1942 12.1057 78.6809 11.9367 79.8426 11.9367C81.0043 11.9367 83.8729 12.1317 83.8729 15.2377C83.8729 17.629 80.868 19.3184 78.973 19.3184C75.5852 19.3184 76.2017 17.642 74.7869 17.642C73.5798 17.642 73.2164 19.5394 71.4641 19.5394C68.5695 19.5394 69.8286 14.6659 68.5241 14.6659C66.8562 14.6659 67.0963 18.8181 65.1882 18.8181C63.7669 18.8181 64.7469 14.8088 63.6436 14.8088C62.5014 14.8153 61.7226 18.9156 60.5869 18.9156Z" fill="black"/>
</svg>
